<svg xmlns="http://www.w3.org/2000/svg" viewBox="0 0 432.12 498.43"><defs><style>.cls-1{fill:#3d3d3d}.cls-2{fill:#9b9a9a}.cls-3{fill:#fff}</style></defs><title>logo</title><g id="Layer_2" data-name="Layer 2"><polygon points="432.12 373.42 216.53 498.43 .47 374.23 0 125.01 215.59 0 431.66 124.2 432.12 373.42"/><polygon points="77.67 157.94 125.42 186.15 125.81 397.91 78.07 368.9 77.67 157.94" class="cls-1"/><polygon points="217.27 132.19 125.42 186.15 77.67 157.94 215.99 78.47 354.11 157.43 307.28 185.81 217.27 132.19" class="cls-2"/><polygon points="216.58 397.74 354.4 316.64 354.11 157.43 307.28 185.81 309.02 289.53 216.48 344.09 216.58 397.74" class="cls-3"/><polygon points="125.81 397.91 172.69 371.88 172.59 319.54 125.71 345.29 125.81 397.91" class="cls-3"/><polyline points="216.58 397.74 172.69 371.88 172.59 319.54 216.48 344.09" class="cls-1"/><polygon points="172.39 213.33 216.04 237.88 216.38 289.19 172.49 264.13 172.39 213.33" class="cls-1"/><polygon points="215.95 188.1 260.65 213.16 216.04 237.88 172.39 213.33 215.95 188.1" class="cls-2"/><polygon points="260.74 263.45 216.38 289.19 216.04 237.88 260.65 213.16 260.74 263.45" class="cls-3"/></g></svg>